<svg width="121" height="121" viewBox="0 0 121 121" fill="none" xmlns="http://www.w3.org/2000/svg">
<path d="M3.79606 116.871C2.34933 115.424 1.39448 113.746 0.931528 111.836C0.468573 109.869 0.468573 107.93 0.931528 106.02C1.39448 104.111 2.32039 102.461 3.70926 101.073L44.4204 60.3615L3.70926 19.7371C2.32039 18.3483 1.39448 16.699 0.931528 14.7893C0.468573 12.8796 0.468573 10.9699 0.931528 9.06024C1.39448 7.09268 2.34933 5.38553 3.79606 3.93879C5.18493 2.54993 6.83421 1.62402 8.7439 1.16106C10.7115 0.640237 12.6501 0.640237 14.5598 1.16106C16.5273 1.62402 18.2056 2.52099 19.5944 3.85199L60.2188 44.5631L100.93 3.93879C102.319 2.54993 103.939 1.62402 105.791 1.16106C107.701 0.640237 109.61 0.640237 111.52 1.16106C113.488 1.62402 115.166 2.57886 116.555 4.0256C118.059 5.41446 119.043 7.09268 119.506 9.06024C119.969 10.9699 119.969 12.8796 119.506 14.7893C119.043 16.699 118.088 18.3483 116.641 19.7371L76.1039 60.3615L116.641 101.073C118.088 102.461 119.043 104.111 119.506 106.02C119.969 107.93 119.969 109.869 119.506 111.836C119.043 113.746 118.059 115.395 116.555 116.784C115.166 118.231 113.488 119.215 111.52 119.736C109.61 120.198 107.701 120.198 105.791 119.736C103.939 119.273 102.319 118.318 100.93 116.871L60.2188 76.2466L19.5944 116.958C18.2056 118.289 16.5273 119.215 14.5598 119.736C12.6501 120.198 10.7115 120.198 8.7439 119.736C6.83421 119.215 5.18493 118.26 3.79606 116.871Z" fill="#7F7F7F" fill-opacity="0.5" style="mix-blend-mode:luminosity"/>
<path d="M3.79606 116.871C2.34933 115.424 1.39448 113.746 0.931528 111.836C0.468573 109.869 0.468573 107.93 0.931528 106.02C1.39448 104.111 2.32039 102.461 3.70926 101.073L44.4204 60.3615L3.70926 19.7371C2.32039 18.3483 1.39448 16.699 0.931528 14.7893C0.468573 12.8796 0.468573 10.9699 0.931528 9.06024C1.39448 7.09268 2.34933 5.38553 3.79606 3.93879C5.18493 2.54993 6.83421 1.62402 8.7439 1.16106C10.7115 0.640237 12.6501 0.640237 14.5598 1.16106C16.5273 1.62402 18.2056 2.52099 19.5944 3.85199L60.2188 44.5631L100.93 3.93879C102.319 2.54993 103.939 1.62402 105.791 1.16106C107.701 0.640237 109.61 0.640237 111.52 1.16106C113.488 1.62402 115.166 2.57886 116.555 4.0256C118.059 5.41446 119.043 7.09268 119.506 9.06024C119.969 10.9699 119.969 12.8796 119.506 14.7893C119.043 16.699 118.088 18.3483 116.641 19.7371L76.1039 60.3615L116.641 101.073C118.088 102.461 119.043 104.111 119.506 106.02C119.969 107.93 119.969 109.869 119.506 111.836C119.043 113.746 118.059 115.395 116.555 116.784C115.166 118.231 113.488 119.215 111.52 119.736C109.61 120.198 107.701 120.198 105.791 119.736C103.939 119.273 102.319 118.318 100.93 116.871L60.2188 76.2466L19.5944 116.958C18.2056 118.289 16.5273 119.215 14.5598 119.736C12.6501 120.198 10.7115 120.198 8.7439 119.736C6.83421 119.215 5.18493 118.26 3.79606 116.871Z" fill="white" style="mix-blend-mode:overlay"/>
</svg>
