<svg width="179" height="165" viewBox="0 0 179 165" fill="none" xmlns="http://www.w3.org/2000/svg">
<path d="M0.468902 55.6023C0.468902 47.3849 1.77096 39.8908 4.37509 33.1201C7.03708 26.3493 10.7118 20.5045 15.3992 15.5856C20.1445 10.6667 25.6132 6.90521 31.8052 4.30109C37.9972 1.63909 44.6811 0.308098 51.857 0.308098C60.248 0.308098 67.6264 2.04418 73.992 5.51635C80.3576 8.93064 85.4502 13.4445 89.2695 19.0578C93.1468 13.4445 98.2393 8.93064 104.547 5.51635C110.913 2.04418 118.291 0.308098 126.682 0.308098C133.858 0.308098 140.542 1.63909 146.734 4.30109C152.984 6.90521 158.452 10.6667 163.14 15.5856C167.827 20.5045 171.473 26.3493 174.077 33.1201C176.739 39.8908 178.07 47.3849 178.07 55.6023C178.07 67.9864 174.801 80.2836 168.261 92.4941C161.722 104.647 152.492 116.481 140.571 127.997C128.708 139.455 114.761 150.392 98.7312 160.809C97.1108 161.851 95.4326 162.777 93.6965 163.587C92.0183 164.455 90.5427 164.889 89.2695 164.889C88.0543 164.889 86.5786 164.455 84.8425 163.587C83.1064 162.777 81.4572 161.851 79.8947 160.809C63.807 150.392 49.8026 139.455 37.8815 127.997C26.0183 116.481 16.817 104.647 10.2778 92.4941C3.73852 80.2836 0.468902 67.9864 0.468902 55.6023ZM20.6075 55.5155C20.6075 62.8649 22.3435 70.4169 25.8157 78.1714C29.3457 85.868 34.2068 93.5068 40.3988 101.088C46.5908 108.611 53.7377 115.902 61.8394 122.962C69.9411 130.022 78.5926 136.591 87.7939 142.667C88.5462 143.246 89.0381 143.535 89.2695 143.535C89.501 143.535 90.0218 143.246 90.832 142.667C99.9754 136.591 108.598 130.022 116.7 122.962C124.801 115.902 131.948 108.611 138.14 101.088C144.332 93.5068 149.164 85.868 152.637 78.1714C156.167 70.4169 157.932 62.8649 157.932 55.5155C157.932 48.3976 156.485 42.1766 153.591 36.8526C150.756 31.5287 146.85 27.391 141.873 24.4396C136.896 21.4304 131.254 19.9258 124.946 19.9258C119.854 19.9258 115.513 20.7939 111.925 22.53C108.338 24.2082 105.241 26.3783 102.637 29.0403C100.033 31.6444 97.7763 34.2775 95.8666 36.9394C94.5935 38.6177 93.4651 39.8329 92.4813 40.5852C91.5554 41.3375 90.4848 41.7137 89.2695 41.7137C88.0543 41.7137 86.9548 41.3665 85.971 40.672C84.9872 39.9197 83.8587 38.6755 82.5856 36.9394C80.7917 34.2775 78.5926 31.6444 75.9885 29.0403C73.4422 26.4361 70.3462 24.266 66.7005 22.53C63.0547 20.7939 58.6855 19.9258 53.593 19.9258C47.2853 19.9258 41.643 21.4304 36.6662 24.4396C31.6895 27.391 27.7543 31.5287 24.8609 36.8526C22.0253 42.1766 20.6075 48.3976 20.6075 55.5155Z" fill="#7F7F7F" fill-opacity="0.5" style="mix-blend-mode:luminosity"/>
<path d="M0.468902 55.6023C0.468902 47.3849 1.77096 39.8908 4.37509 33.1201C7.03708 26.3493 10.7118 20.5045 15.3992 15.5856C20.1445 10.6667 25.6132 6.90521 31.8052 4.30109C37.9972 1.63909 44.6811 0.308098 51.857 0.308098C60.248 0.308098 67.6264 2.04418 73.992 5.51635C80.3576 8.93064 85.4502 13.4445 89.2695 19.0578C93.1468 13.4445 98.2393 8.93064 104.547 5.51635C110.913 2.04418 118.291 0.308098 126.682 0.308098C133.858 0.308098 140.542 1.63909 146.734 4.30109C152.984 6.90521 158.452 10.6667 163.14 15.5856C167.827 20.5045 171.473 26.3493 174.077 33.1201C176.739 39.8908 178.07 47.3849 178.07 55.6023C178.07 67.9864 174.801 80.2836 168.261 92.4941C161.722 104.647 152.492 116.481 140.571 127.997C128.708 139.455 114.761 150.392 98.7312 160.809C97.1108 161.851 95.4326 162.777 93.6965 163.587C92.0183 164.455 90.5427 164.889 89.2695 164.889C88.0543 164.889 86.5786 164.455 84.8425 163.587C83.1064 162.777 81.4572 161.851 79.8947 160.809C63.807 150.392 49.8026 139.455 37.8815 127.997C26.0183 116.481 16.817 104.647 10.2778 92.4941C3.73852 80.2836 0.468902 67.9864 0.468902 55.6023ZM20.6075 55.5155C20.6075 62.8649 22.3435 70.4169 25.8157 78.1714C29.3457 85.868 34.2068 93.5068 40.3988 101.088C46.5908 108.611 53.7377 115.902 61.8394 122.962C69.9411 130.022 78.5926 136.591 87.7939 142.667C88.5462 143.246 89.0381 143.535 89.2695 143.535C89.501 143.535 90.0218 143.246 90.832 142.667C99.9754 136.591 108.598 130.022 116.7 122.962C124.801 115.902 131.948 108.611 138.14 101.088C144.332 93.5068 149.164 85.868 152.637 78.1714C156.167 70.4169 157.932 62.8649 157.932 55.5155C157.932 48.3976 156.485 42.1766 153.591 36.8526C150.756 31.5287 146.85 27.391 141.873 24.4396C136.896 21.4304 131.254 19.9258 124.946 19.9258C119.854 19.9258 115.513 20.7939 111.925 22.53C108.338 24.2082 105.241 26.3783 102.637 29.0403C100.033 31.6444 97.7763 34.2775 95.8666 36.9394C94.5935 38.6177 93.4651 39.8329 92.4813 40.5852C91.5554 41.3375 90.4848 41.7137 89.2695 41.7137C88.0543 41.7137 86.9548 41.3665 85.971 40.672C84.9872 39.9197 83.8587 38.6755 82.5856 36.9394C80.7917 34.2775 78.5926 31.6444 75.9885 29.0403C73.4422 26.4361 70.3462 24.266 66.7005 22.53C63.0547 20.7939 58.6855 19.9258 53.593 19.9258C47.2853 19.9258 41.643 21.4304 36.6662 24.4396C31.6895 27.391 27.7543 31.5287 24.8609 36.8526C22.0253 42.1766 20.6075 48.3976 20.6075 55.5155Z" fill="white" style="mix-blend-mode:overlay"/>
</svg>
