<svg width="179" height="166" viewBox="0 0 179 166" fill="none" xmlns="http://www.w3.org/2000/svg">
<path d="M89.4648 165.125C88.2496 165.125 86.7739 164.691 85.0378 163.823C83.3018 163.013 81.6525 162.087 80.09 161.045C64.0023 150.629 49.9979 139.691 38.0768 128.233C26.2136 116.717 17.0123 104.883 10.4731 92.7304C3.93384 80.52 0.664214 68.2227 0.664214 55.8387C0.664214 47.6212 1.96628 40.1271 4.5704 33.3564C7.23239 26.5857 10.8782 20.7409 15.5077 15.822C20.1951 10.9031 25.577 7.14154 31.6533 4.53742C37.7875 1.87542 44.3846 0.544426 51.4446 0.544426C60.1829 0.544426 67.7349 2.74346 74.1005 7.14154C80.524 11.5396 85.6455 17.2687 89.4648 24.3288C93.3421 17.2108 98.4635 11.4817 104.829 7.14154C111.253 2.74346 118.834 0.544426 127.572 0.544426C134.516 0.544426 141.055 1.87542 147.19 4.53742C153.382 7.14154 158.792 10.9031 163.422 15.822C168.052 20.7409 171.668 26.5857 174.272 33.3564C176.934 40.1271 178.265 47.6212 178.265 55.8387C178.265 68.2227 174.996 80.52 168.457 92.7304C161.917 104.883 152.687 116.717 140.766 128.233C128.903 139.691 114.956 150.629 98.9265 161.045C97.3062 162.087 95.6279 163.013 93.8919 163.823C92.2136 164.691 90.738 165.125 89.4648 165.125Z" fill="#7F7F7F" fill-opacity="0.5" style="mix-blend-mode:luminosity"/>
<path d="M89.4648 165.125C88.2496 165.125 86.7739 164.691 85.0378 163.823C83.3018 163.013 81.6525 162.087 80.09 161.045C64.0023 150.629 49.9979 139.691 38.0768 128.233C26.2136 116.717 17.0123 104.883 10.4731 92.7304C3.93384 80.52 0.664214 68.2227 0.664214 55.8387C0.664214 47.6212 1.96628 40.1271 4.5704 33.3564C7.23239 26.5857 10.8782 20.7409 15.5077 15.822C20.1951 10.9031 25.577 7.14154 31.6533 4.53742C37.7875 1.87542 44.3846 0.544426 51.4446 0.544426C60.1829 0.544426 67.7349 2.74346 74.1005 7.14154C80.524 11.5396 85.6455 17.2687 89.4648 24.3288C93.3421 17.2108 98.4635 11.4817 104.829 7.14154C111.253 2.74346 118.834 0.544426 127.572 0.544426C134.516 0.544426 141.055 1.87542 147.19 4.53742C153.382 7.14154 158.792 10.9031 163.422 15.822C168.052 20.7409 171.668 26.5857 174.272 33.3564C176.934 40.1271 178.265 47.6212 178.265 55.8387C178.265 68.2227 174.996 80.52 168.457 92.7304C161.917 104.883 152.687 116.717 140.766 128.233C128.903 139.691 114.956 150.629 98.9265 161.045C97.3062 162.087 95.6279 163.013 93.8919 163.823C92.2136 164.691 90.738 165.125 89.4648 165.125Z" fill="white" style="mix-blend-mode:overlay"/>
</svg>
