<svg width="180" height="165" viewBox="0 0 180 165" fill="none" xmlns="http://www.w3.org/2000/svg">
<path d="M23.3503 152.277C8.66786 152.277 0.94751 144.695 0.94751 130.081V57.8406C0.94751 52.4639 1.63683 50.0513 3.91157 46.9494L17.4911 28.8203V17.7913C17.4911 6.48647 24.0396 0.213681 35.758 0.213681H91.9374C103.656 0.213681 110.135 6.48647 110.135 17.7913V28.8203L123.784 46.9494C125.576 49.2931 126.196 51.0164 126.334 54.394H113.031C112.272 53.1532 111.445 52.6707 110.066 51.9814L98.0723 36.0582C96.7626 34.3349 96.418 33.0252 96.418 30.8194V19.9282C96.418 15.999 94.4879 13.9311 90.7656 13.9311H36.9299C33.2076 13.9311 31.2775 15.999 31.2775 19.9282V30.8194C31.2775 33.0252 30.9328 34.3349 29.6231 36.0582L16.3882 53.6358C15.4232 54.9455 15.2853 55.7727 15.2853 57.9785V128.565C15.2853 134.768 18.5251 137.939 24.66 137.939H95.315L96.2801 148.83C96.418 150.071 96.5558 151.174 96.8315 152.277H23.3503ZM45.891 33.3698C43.2716 33.3698 41.0658 31.164 41.0658 28.5446C41.0658 25.9252 43.2716 23.6505 45.891 23.6505H81.8044C84.3549 23.6505 86.5607 25.9252 86.5607 28.5446C86.5607 31.164 84.4238 33.3698 81.8044 33.3698H45.891ZM123.577 164.409C113.099 164.409 107.861 159.101 106.758 147.797L99.7267 74.3153C99.1752 68.7318 102.346 64.9406 107.723 64.9406H134.193L134.537 61.2183C135.158 54.0494 137.639 49.4999 143.292 45.4329L165.419 29.4407C172.381 24.4087 179.343 34.3349 172.794 39.0222L149.771 55.5659C147.565 57.1513 146.669 58.8746 146.462 62.0454L146.256 64.9406H170.52C175.896 64.9406 179.136 68.7318 178.585 74.3153L171.485 147.797C170.382 159.101 165.143 164.409 154.734 164.409H123.577ZM124.266 150.416H153.976C156.32 150.416 157.423 149.382 157.698 146.9L164.178 78.9337H114.133L120.613 146.9C120.889 149.382 121.992 150.416 124.266 150.416Z" fill="white"/>
</svg>
