<svg width="147" height="23" viewBox="0 0 147 23" fill="none" xmlns="http://www.w3.org/2000/svg">
<path d="M11.2625 22.5592C9.35283 22.5592 7.55888 22.0673 5.88066 21.0835C4.20245 20.0419 2.84252 18.682 1.80087 17.0038C0.75922 15.2677 0.238395 13.3869 0.238395 11.3615C0.238395 9.33605 0.75922 7.48423 1.80087 5.80602C2.84252 4.12781 4.20245 2.79681 5.88066 1.81303C7.55888 0.771378 9.35283 0.250554 11.2625 0.250554H135.826C137.794 0.250554 139.617 0.771378 141.295 1.81303C142.973 2.79681 144.304 4.12781 145.288 5.80602C146.33 7.48423 146.851 9.33605 146.851 11.3615C146.851 13.3869 146.33 15.2677 145.288 17.0038C144.304 18.682 142.973 20.0419 141.295 21.0835C139.617 22.0673 137.794 22.5592 135.826 22.5592H11.2625Z" fill="#7F7F7F" fill-opacity="0.5" style="mix-blend-mode:luminosity"/>
<path d="M11.2625 22.5592C9.35283 22.5592 7.55888 22.0673 5.88066 21.0835C4.20245 20.0419 2.84252 18.682 1.80087 17.0038C0.75922 15.2677 0.238395 13.3869 0.238395 11.3615C0.238395 9.33605 0.75922 7.48423 1.80087 5.80602C2.84252 4.12781 4.20245 2.79681 5.88066 1.81303C7.55888 0.771378 9.35283 0.250554 11.2625 0.250554H135.826C137.794 0.250554 139.617 0.771378 141.295 1.81303C142.973 2.79681 144.304 4.12781 145.288 5.80602C146.33 7.48423 146.851 9.33605 146.851 11.3615C146.851 13.3869 146.33 15.2677 145.288 17.0038C144.304 18.682 142.973 20.0419 141.295 21.0835C139.617 22.0673 137.794 22.5592 135.826 22.5592H11.2625Z" fill="white" style="mix-blend-mode:overlay"/>
</svg>
