<svg width="148" height="147" viewBox="0 0 148 147" fill="none" xmlns="http://www.w3.org/2000/svg">
<path d="M0.905494 73.4348C0.905494 70.3678 2.00501 67.7347 4.20405 65.5357C6.40309 63.3366 9.03615 62.2371 12.1032 62.2371H63.2309V11.1963C63.2309 8.12919 64.3014 5.49613 66.4426 3.29709C68.5838 1.09805 71.2168 -0.00146437 74.3418 -0.00146437C77.4089 -0.00146437 80.0419 1.09805 82.241 3.29709C84.44 5.49613 85.5395 8.12919 85.5395 11.1963V62.2371H136.667C139.676 62.2371 142.28 63.3366 144.48 65.5357C146.679 67.7347 147.778 70.3678 147.778 73.4348C147.778 76.5598 146.679 79.2218 144.48 81.4208C142.28 83.562 139.676 84.6326 136.667 84.6326H85.5395V135.76C85.5395 138.769 84.44 141.374 82.241 143.573C80.0419 145.772 77.4089 146.871 74.3418 146.871C71.2168 146.871 68.5838 145.772 66.4426 143.573C64.3014 141.374 63.2309 138.769 63.2309 135.76V84.6326H12.1032C9.03615 84.6326 6.40309 83.562 4.20405 81.4208C2.00501 79.2218 0.905494 76.5598 0.905494 73.4348Z" fill="#7F7F7F" fill-opacity="0.5" style="mix-blend-mode:luminosity"/>
<path d="M0.905494 73.4348C0.905494 70.3678 2.00501 67.7347 4.20405 65.5357C6.40309 63.3366 9.03615 62.2371 12.1032 62.2371H63.2309V11.1963C63.2309 8.12919 64.3014 5.49613 66.4426 3.29709C68.5838 1.09805 71.2168 -0.00146437 74.3418 -0.00146437C77.4089 -0.00146437 80.0419 1.09805 82.241 3.29709C84.44 5.49613 85.5395 8.12919 85.5395 11.1963V62.2371H136.667C139.676 62.2371 142.28 63.3366 144.48 65.5357C146.679 67.7347 147.778 70.3678 147.778 73.4348C147.778 76.5598 146.679 79.2218 144.48 81.4208C142.28 83.562 139.676 84.6326 136.667 84.6326H85.5395V135.76C85.5395 138.769 84.44 141.374 82.241 143.573C80.0419 145.772 77.4089 146.871 74.3418 146.871C71.2168 146.871 68.5838 145.772 66.4426 143.573C64.3014 141.374 63.2309 138.769 63.2309 135.76V84.6326H12.1032C9.03615 84.6326 6.40309 83.562 4.20405 81.4208C2.00501 79.2218 0.905494 76.5598 0.905494 73.4348Z" fill="white" style="mix-blend-mode:overlay"/>
</svg>
