<svg width="124" height="139" viewBox="0 0 124 139" fill="none" xmlns="http://www.w3.org/2000/svg">
<path d="M0.888848 100.734C0.888848 98.2757 2.90001 96.2646 5.28361 96.2646H16.7547L21.9688 79.8773H5.28361C2.90001 79.8773 0.888848 77.8662 0.888848 75.4826C0.888848 73.0245 2.90001 71.0878 5.28361 71.0878H24.7993L42.6019 15.3711C45.6558 5.16634 51.9873 0.399141 62.49 0.399141C72.9928 0.399141 79.1752 5.16634 82.3037 15.3711L100.032 71.0878H119.473C121.931 71.0878 123.942 73.0245 123.942 75.4826C123.942 77.8662 121.931 79.8773 119.473 79.8773H102.862L108.076 96.2646H119.473C121.931 96.2646 123.942 98.2757 123.942 100.734C123.942 103.117 121.931 105.129 119.473 105.129H110.907L115.972 120.994C116.568 123.08 117.015 125.017 117.015 126.953C117.015 134.253 111.875 138.127 104.724 138.127C98.0951 138.127 94.2962 134.998 92.583 128.667L85.7301 105.129H39.1009L32.2481 128.592C30.5349 134.849 26.9595 138.127 20.3301 138.127C13.3283 138.127 7.89067 134.402 7.89067 126.953C7.89067 124.719 8.18862 123.155 8.85901 120.994L13.9242 105.129H5.28361C2.90001 105.129 0.888848 103.117 0.888848 100.734ZM61.9686 26.5443L49.0078 71.0878H75.8233L62.8625 26.5443H61.9686ZM41.6335 96.2646H83.1976L78.3559 79.8773H46.4752L41.6335 96.2646Z" fill="white"/>
</svg>
